<?xml version="1.0" encoding="UTF-8"?>
<svg xmlns="http://www.w3.org/2000/svg" xmlns:xlink="http://www.w3.org/1999/xlink" width="2250" height="2250" viewBox="0 0 2250 2250">
<rect x="-225" y="-225" width="2700" height="2700" fill="rgb(100%, 100%, 100%)" fill-opacity="1"/>
<path fill-rule="nonzero" fill="rgb(10.205078%, 10.205078%, 10.205078%)" fill-opacity="1" d="M 1761.980469 1864.078125 C 1694.628906 1843.050781 1655.519531 1774.078125 1602.371094 1730.335938 C 1550.109375 1681.101562 1502.96875 1625.339844 1446.109375 1581.574219 C 1259.558594 1725.261719 996.726562 1759.699219 780.539062 1665.671875 C 527.285156 1560.457031 354.386719 1287.726562 375.765625 1012.910156 C 387.027344 747 575.722656 501.371094 828.59375 419.328125 C 1082.429688 330.980469 1384.109375 415.878906 1553.441406 624.878906 C 1728.210938 828.5 1758.328125 1140.640625 1624.25 1373.300781 C 1616.21875 1403.296875 1562.78125 1435.09375 1605.671875 1458.101562 C 1691.328125 1546.578125 1783.578125 1629.199219 1862.941406 1723.386719 C 1904.25 1790.054688 1837.808594 1879.269531 1761.980469 1864.078125 Z M 1121.730469 1555.496094 C 1362.148438 1521.136719 1555.53125 1294.910156 1550.878906 1052.03125 C 1555.519531 817.960938 1376.851562 597.800781 1147.21875 553.078125 C 929.828125 502.238281 691.183594 617.148438 589.636719 814.660156 C 478.980469 1016.871094 530.8125 1290.078125 708.203125 1437.554688 C 819.964844 1536.582031 974.914062 1578.214844 1121.730469 1555.496094 "/>
</svg>
